<svg xmlns="http://www.w3.org/2000/svg" viewBox="0 0 24 24" width="24" height="24" color="#000000" fill="none">
    <path fill-rule="evenodd" clip-rule="evenodd" d="M5.34244 21.7411H3.00244C2.59244 21.7411 2.25244 21.4011 2.25244 20.9911V18.6511C2.25244 17.7611 2.25244 17.2711 2.46244 16.7711C2.67244 16.2711 3.01244 15.931 3.63244 15.311L13.9134 5.0301C13.9315 5.00702 13.9512 4.9848 13.9724 4.96359C13.9936 4.94239 14.0158 4.92273 14.0389 4.90463L15.4124 3.53109C15.9424 3.00109 16.2324 2.72109 16.6224 2.53109C17.3724 2.15109 18.2924 2.15109 19.0524 2.53109C19.4324 2.71109 19.7224 3.00108 20.2524 3.53107L20.2524 3.53109L20.3524 3.63107C20.9524 4.23107 21.2624 4.55101 21.4624 4.94101C21.8424 5.71101 21.8424 6.62108 21.4624 7.39108C21.2524 7.80108 20.9224 8.14102 20.3524 8.70102L19.0593 9.99529C19.0506 10.0049 19.0416 10.0144 19.0324 10.0237C19.023 10.0331 19.0134 10.0422 19.0036 10.051L8.70244 20.361L8.64488 20.4186L8.64487 20.4186C8.05127 21.0125 7.71669 21.3473 7.22244 21.5411C6.72253 21.7511 6.23262 21.7511 5.34292 21.7511H5.34244V21.7411ZM17.4461 9.4974L7.64244 19.3011L7.58935 19.3532C7.09614 19.8373 6.86496 20.0641 6.65244 20.1511C6.43253 20.2411 6.11268 20.2411 5.34332 20.2411H5.34244H3.76244V18.6711V18.671C3.76244 17.9011 3.76244 17.581 3.85244 17.361C3.93917 17.1587 4.16519 16.9285 4.65579 16.4288L4.6558 16.4288L4.71244 16.3711L14.5161 6.56738L17.4461 9.4974ZM18.5062 8.43737L19.3024 7.64108C19.7524 7.19108 20.0324 6.91104 20.1224 6.72104C20.2924 6.38103 20.2924 5.96105 20.1224 5.61105C20.0324 5.44105 19.7724 5.17105 19.3324 4.73105L19.2024 4.60104C19.146 4.54601 19.0924 4.49349 19.0416 4.4437L19.0413 4.44336C18.7418 4.14957 18.5392 3.95092 18.4024 3.89108C18.0424 3.71108 17.6324 3.71108 17.2824 3.89108C17.1124 3.97108 16.8524 4.22105 16.4724 4.61105L15.5761 5.50735L18.5062 8.43737ZM18.0024 21.7422H12.0024C11.5924 21.7422 11.2524 21.4022 11.2524 20.9922C11.2524 20.5822 11.5924 20.2422 12.0024 20.2422H18.0024C18.4124 20.2422 18.7524 20.5822 18.7524 20.9922C18.7524 21.4022 18.4124 21.7422 18.0024 21.7422Z" fill="currentColor" />
</svg>