<svg xmlns="http://www.w3.org/2000/svg" viewBox="0 0 24 24" width="48" height="48">
    <rect width="24" height="24" rx="6" ry="6" fill="green" />
    <path fill="white" d="M15.5,1.75 C19.228,1.75 22.25,4.772 22.25,8.5 C22.25,12.228 19.228,15.25 15.5,15.25 C14.697,15.25 13.925,15.109 13.209,14.851 L10.03,18.03 C9.89,18.171 9.699,18.25 9.5,18.25 L8.25,18.25 L8.25,19.5 C8.25,19.914 7.914,20.25 7.5,20.25 L6.25,20.25 L6.25,21.5 C6.25,21.914 5.914,22.25 5.5,22.25 L2.5,22.25 C2.086,22.25 1.75,21.914 1.75,21.5 L1.75,18.5 C1.75,18.301 1.829,18.11 1.97,17.97 L9.149,10.791 C8.891,10.075 8.75,9.303 8.75,8.5 C8.75,4.772 11.772,1.75 15.5,1.75 Z M10.25,8.5 C10.25,9.272 10.416,10.003 10.714,10.661 C10.842,10.945 10.781,11.279 10.561,11.5 L3.25,18.811 L3.25,20.75 L4.75,20.75 L4.75,19.5 C4.75,19.086 5.086,18.75 5.5,18.75 L6.75,18.75 L6.75,17.5 C6.75,17.086 7.086,16.75 7.5,16.75 L9.189,16.75 L12.5,13.439 C12.721,13.219 13.055,13.158 13.339,13.286 C13.997,13.584 14.728,13.75 15.5,13.75 C18.399,13.75 20.75,11.399 20.75,8.5 C20.75,5.601 18.399,3.25 15.5,3.25 C12.601,3.25 10.25,5.601 10.25,8.5 Z M18.03,7.03 L17.03,8.03 C16.737,8.323 16.263,8.323 15.97,8.03 C15.677,7.737 15.677,7.263 15.97,6.97 L16.97,5.97 C17.263,5.677 17.737,5.677 18.03,5.97 C18.323,6.263 18.323,6.737 18.03,7.03 Z" />
  </svg>